<svg xmlns="http://www.w3.org/2000/svg" viewBox="0 0 2094.19 945.75"><defs><style>.cls-1{fill:#59595b;}.cls-2{fill:#1a2e35;}.cls-3{fill:#ff735d;}.cls-4{fill:#375a64;}.cls-5{fill:#a4a4a7;}.cls-6{fill:#f5f5f5;}.cls-7{fill:#e1e1e1;}.cls-8{fill:#2f3f51;}.cls-9{fill:#fff;}.cls-10{fill:#ececec;}.cls-11{fill:#fafafa;}.cls-12{font-size:79.56px;font-family:Poppins-Bold, Poppins;font-weight:700;}.cls-12,.cls-13{fill:#0369a1;}.cls-13{font-size:58px;font-family:Poppins-MediumItalic, Poppins;font-weight:500;font-style:italic;}</style></defs><g id="Layer_2" data-name="Layer 2"><g id="Layer_1-2" data-name="Layer 1"><path class="cls-1" d="M1129.51,670.83V660.24h2v10.59Zm12.64,0V660.24h21.17v10.59Zm31.76,0V660.24h21.18v10.59Zm31.77,0V660.24h328v10.59Z"/><rect class="cls-1" x="76.56" y="414.54" width="10.59" height="10.59"/><path class="cls-1" d="M97,425.13V414.54h19.66v10.59Zm29.49,0V414.54h19.67v10.59Z"/><polygon class="cls-1" points="155.98 425.13 155.98 414.54 171.86 414.54 171.86 430.42 161.27 430.42 161.27 425.13 155.98 425.13"/><path class="cls-1" d="M161.27,887.71V865.93h10.59v21.78Zm0-32.67V833.27h10.59V855Zm0-32.66V800.61h10.59v21.77Zm0-32.66V767.94h10.59v21.78Zm0-32.67V735.28h10.59v21.77Zm0-32.66V702.62h10.59v21.77Zm0-32.66V670h10.59v21.78Zm0-32.66V637.29h10.59v21.78Zm0-32.67V604.63h10.59V626.4Zm0-32.66V572h10.59v21.78Zm0-32.66V539.3h10.59v21.78Zm0-32.67V506.64h10.59v21.77Zm0-32.66V474h10.59v21.77Zm0-32.66V441.31h10.59v21.78Z"/><polygon class="cls-1" points="155.98 914.48 155.98 903.89 161.27 903.89 161.27 898.59 171.86 898.59 171.86 914.48 155.98 914.48"/><path class="cls-1" d="M103.45,914.48V903.89H121v10.59Zm26.26,0V903.89h17.51v10.59Z"/><rect class="cls-1" x="84.11" y="903.89" width="10.59" height="10.59"/><path class="cls-1" d="M69.21,591.38V580.79h2.05v10.59Zm12.64,0V580.79H103v10.59Zm31.77,0V580.79H134.8v10.59Zm31.77,0V580.79h21.18v10.59Z"/><path class="cls-1" d="M69.21,753.6V743h2.05V753.6Zm12.64,0V743H103V753.6Zm31.77,0V743H134.8V753.6Zm31.77,0V743h21.18V753.6Z"/><path class="cls-1" d="M165.1,672.49V661.9h2v10.59Zm12.63,0V661.9h21.18v10.59Zm31.77,0V661.9h21.18v10.59Zm31.77,0V661.9h328v10.59Z"/><rect class="cls-2" y="385.32" width="70.46" height="70.46"/><rect class="cls-3" y="550.86" width="70.46" height="70.46"/><rect class="cls-4" y="713.07" width="70.46" height="70.47"/><rect class="cls-5" y="875.28" width="70.46" height="70.46"/><rect class="cls-2" x="631.03" y="514.82" width="449.6" height="312.97"/><rect class="cls-4" x="569.25" y="607.65" width="462.49" height="114.74"/><rect class="cls-2" x="589.79" y="631.29" width="91.06" height="14.01"/><rect class="cls-2" x="589.79" y="655.39" width="91.06" height="14.01"/><rect class="cls-2" x="589.79" y="680.32" width="91.06" height="14.01"/><path class="cls-2" d="M716.86,639.75a5.23,5.23,0,1,1-5.22-5.22A5.22,5.22,0,0,1,716.86,639.75Z"/><path class="cls-2" d="M739.91,639.75a5.22,5.22,0,1,1-5.22-5.22A5.22,5.22,0,0,1,739.91,639.75Z"/><path class="cls-2" d="M763,639.75a5.22,5.22,0,1,1-5.22-5.22A5.21,5.21,0,0,1,763,639.75Z"/><path class="cls-2" d="M786,639.75a5.23,5.23,0,1,1-5.23-5.22A5.22,5.22,0,0,1,786,639.75Z"/><path class="cls-2" d="M964.65,639.75a5.23,5.23,0,1,1-5.22-5.22A5.22,5.22,0,0,1,964.65,639.75Z"/><path class="cls-2" d="M988.16,639.75a5.23,5.23,0,1,1-5.23-5.22A5.22,5.22,0,0,1,988.16,639.75Z"/><path class="cls-2" d="M809.07,639.75a5.23,5.23,0,1,1-5.23-5.22A5.22,5.22,0,0,1,809.07,639.75Z"/><path class="cls-2" d="M922.28,639.75a5.23,5.23,0,1,1-5.23-5.22A5.22,5.22,0,0,1,922.28,639.75Z"/><path class="cls-6" d="M832.12,639.75a5.23,5.23,0,1,1-5.22-5.22A5.22,5.22,0,0,1,832.12,639.75Z"/><path class="cls-6" d="M855.17,639.75a5.22,5.22,0,1,1-5.22-5.22A5.22,5.22,0,0,1,855.17,639.75Z"/><path class="cls-6" d="M901.94,639.75a5.23,5.23,0,1,1-5.22-5.22A5.22,5.22,0,0,1,901.94,639.75Z"/><path class="cls-6" d="M1007.28,639.75a5.22,5.22,0,1,1-5.22-5.22A5.22,5.22,0,0,1,1007.28,639.75Z"/><path class="cls-3" d="M878.22,639.75a5.22,5.22,0,1,1-5.22-5.22A5.21,5.21,0,0,1,878.22,639.75Z"/><path class="cls-3" d="M944.23,639.75a5.23,5.23,0,1,1-5.23-5.22A5.22,5.22,0,0,1,944.23,639.75Z"/><path class="cls-2" d="M996.84,664.93a5.22,5.22,0,1,1,5.22,5.23A5.22,5.22,0,0,1,996.84,664.93Z"/><path class="cls-2" d="M973.78,664.93a5.23,5.23,0,1,1,5.23,5.23A5.23,5.23,0,0,1,973.78,664.93Z"/><path class="cls-2" d="M950.73,664.93a5.23,5.23,0,1,1,5.23,5.23A5.23,5.23,0,0,1,950.73,664.93Z"/><path class="cls-2" d="M927.68,664.93a5.23,5.23,0,1,1,5.22,5.23A5.22,5.22,0,0,1,927.68,664.93Z"/><path class="cls-2" d="M749.05,664.93a5.22,5.22,0,1,1,5.22,5.23A5.22,5.22,0,0,1,749.05,664.93Z"/><path class="cls-2" d="M725.54,664.93a5.23,5.23,0,1,1,5.22,5.23A5.22,5.22,0,0,1,725.54,664.93Z"/><path class="cls-2" d="M904.63,664.93a5.22,5.22,0,1,1,5.22,5.23A5.22,5.22,0,0,1,904.63,664.93Z"/><path class="cls-2" d="M791.42,664.93a5.23,5.23,0,1,1,5.22,5.23A5.22,5.22,0,0,1,791.42,664.93Z"/><path class="cls-6" d="M881.58,664.93a5.22,5.22,0,1,1,5.22,5.23A5.22,5.22,0,0,1,881.58,664.93Z"/><path class="cls-6" d="M858.52,664.93a5.23,5.23,0,1,1,5.23,5.23A5.23,5.23,0,0,1,858.52,664.93Z"/><path class="cls-6" d="M811.75,664.93a5.23,5.23,0,1,1,5.23,5.23A5.23,5.23,0,0,1,811.75,664.93Z"/><path class="cls-6" d="M706.41,664.93a5.23,5.23,0,1,1,5.23,5.23A5.23,5.23,0,0,1,706.41,664.93Z"/><path class="cls-3" d="M835.47,664.93a5.23,5.23,0,1,1,5.22,5.23A5.22,5.22,0,0,1,835.47,664.93Z"/><path class="cls-3" d="M769.47,664.93a5.23,5.23,0,1,1,5.22,5.23A5.22,5.22,0,0,1,769.47,664.93Z"/><path class="cls-2" d="M716.86,687.32a5.23,5.23,0,1,1-5.22-5.22A5.23,5.23,0,0,1,716.86,687.32Z"/><circle class="cls-2" cx="734.69" cy="687.32" r="5.22"/><circle class="cls-2" cx="757.74" cy="687.32" r="5.22"/><circle class="cls-2" cx="780.79" cy="687.32" r="5.22"/><circle class="cls-2" cx="959.43" cy="687.32" r="5.22"/><circle class="cls-2" cx="982.93" cy="687.32" r="5.22"/><path class="cls-2" d="M809.07,687.32a5.23,5.23,0,1,1-5.23-5.22A5.23,5.23,0,0,1,809.07,687.32Z"/><path class="cls-2" d="M922.28,687.32a5.23,5.23,0,1,1-5.23-5.22A5.23,5.23,0,0,1,922.28,687.32Z"/><circle class="cls-6" cx="826.9" cy="687.32" r="5.22"/><path class="cls-6" d="M855.17,687.32A5.22,5.22,0,1,1,850,682.1,5.23,5.23,0,0,1,855.17,687.32Z"/><path class="cls-6" d="M901.94,687.32a5.23,5.23,0,1,1-5.22-5.22A5.23,5.23,0,0,1,901.94,687.32Z"/><path class="cls-6" d="M1007.28,687.32a5.22,5.22,0,1,1-5.22-5.22A5.23,5.23,0,0,1,1007.28,687.32Z"/><path class="cls-3" d="M878.22,687.32A5.22,5.22,0,1,1,873,682.1,5.22,5.22,0,0,1,878.22,687.32Z"/><circle class="cls-3" cx="939" cy="687.32" r="5.22"/><rect class="cls-4" x="569.25" y="749.25" width="462.49" height="114.74"/><path class="cls-2" d="M715.72,780.21a5.23,5.23,0,1,1-5.23-5.23A5.23,5.23,0,0,1,715.72,780.21Z"/><path class="cls-2" d="M738.77,780.21a5.23,5.23,0,1,1-5.23-5.23A5.23,5.23,0,0,1,738.77,780.21Z"/><path class="cls-2" d="M761.82,780.21A5.23,5.23,0,1,1,756.6,775,5.22,5.22,0,0,1,761.82,780.21Z"/><path class="cls-2" d="M784.87,780.21a5.23,5.23,0,1,1-5.22-5.23A5.22,5.22,0,0,1,784.87,780.21Z"/><path class="cls-2" d="M963.5,780.21a5.22,5.22,0,1,1-5.22-5.23A5.22,5.22,0,0,1,963.5,780.21Z"/><path class="cls-2" d="M987,780.21a5.23,5.23,0,1,1-5.22-5.23A5.22,5.22,0,0,1,987,780.21Z"/><path class="cls-2" d="M807.92,780.21A5.22,5.22,0,1,1,802.7,775,5.22,5.22,0,0,1,807.92,780.21Z"/><path class="cls-2" d="M921.13,780.21a5.23,5.23,0,1,1-5.22-5.23A5.22,5.22,0,0,1,921.13,780.21Z"/><path class="cls-6" d="M831,780.21a5.23,5.23,0,1,1-5.23-5.23A5.23,5.23,0,0,1,831,780.21Z"/><path class="cls-6" d="M854,780.21A5.23,5.23,0,1,1,848.8,775,5.23,5.23,0,0,1,854,780.21Z"/><path class="cls-6" d="M900.8,780.21a5.23,5.23,0,1,1-5.23-5.23A5.23,5.23,0,0,1,900.8,780.21Z"/><path class="cls-6" d="M1006.14,780.21a5.23,5.23,0,1,1-5.23-5.23A5.23,5.23,0,0,1,1006.14,780.21Z"/><path class="cls-3" d="M877.08,780.21a5.23,5.23,0,1,1-5.22-5.23A5.22,5.22,0,0,1,877.08,780.21Z"/><path class="cls-3" d="M943.08,780.21a5.23,5.23,0,1,1-5.22-5.23A5.22,5.22,0,0,1,943.08,780.21Z"/><path class="cls-2" d="M995.69,805.39a5.23,5.23,0,1,1,5.22,5.22A5.23,5.23,0,0,1,995.69,805.39Z"/><circle class="cls-2" cx="977.86" cy="805.39" r="5.22"/><path class="cls-2" d="M949.59,805.39a5.22,5.22,0,1,1,5.22,5.22A5.23,5.23,0,0,1,949.59,805.39Z"/><path class="cls-2" d="M926.53,805.39a5.23,5.23,0,1,1,5.23,5.22A5.23,5.23,0,0,1,926.53,805.39Z"/><path class="cls-2" d="M747.9,805.39a5.23,5.23,0,1,1,5.22,5.22A5.23,5.23,0,0,1,747.9,805.39Z"/><path class="cls-2" d="M724.39,805.39a5.23,5.23,0,1,1,5.23,5.22A5.23,5.23,0,0,1,724.39,805.39Z"/><circle class="cls-2" cx="908.71" cy="805.39" r="5.22"/><circle class="cls-2" cx="795.5" cy="805.39" r="5.22"/><path class="cls-6" d="M880.43,805.39a5.23,5.23,0,1,1,5.22,5.22A5.23,5.23,0,0,1,880.43,805.39Z"/><path class="cls-6" d="M857.38,805.39a5.23,5.23,0,1,1,5.22,5.22A5.23,5.23,0,0,1,857.38,805.39Z"/><circle class="cls-6" cx="815.83" cy="805.39" r="5.22"/><path class="cls-6" d="M705.27,805.39a5.23,5.23,0,1,1,5.22,5.22A5.23,5.23,0,0,1,705.27,805.39Z"/><path class="cls-3" d="M834.33,805.39a5.22,5.22,0,1,1,5.22,5.22A5.22,5.22,0,0,1,834.33,805.39Z"/><path class="cls-3" d="M768.32,805.39a5.23,5.23,0,1,1,5.23,5.22A5.23,5.23,0,0,1,768.32,805.39Z"/><path class="cls-2" d="M715.72,827.78a5.23,5.23,0,1,1-5.23-5.22A5.23,5.23,0,0,1,715.72,827.78Z"/><path class="cls-2" d="M738.77,827.78a5.23,5.23,0,1,1-5.23-5.22A5.23,5.23,0,0,1,738.77,827.78Z"/><path class="cls-2" d="M761.82,827.78a5.23,5.23,0,1,1-5.22-5.22A5.23,5.23,0,0,1,761.82,827.78Z"/><path class="cls-2" d="M784.87,827.78a5.23,5.23,0,1,1-5.22-5.22A5.23,5.23,0,0,1,784.87,827.78Z"/><path class="cls-2" d="M963.5,827.78a5.22,5.22,0,1,1-5.22-5.22A5.22,5.22,0,0,1,963.5,827.78Z"/><path class="cls-2" d="M987,827.78a5.23,5.23,0,1,1-5.22-5.22A5.23,5.23,0,0,1,987,827.78Z"/><path class="cls-2" d="M807.92,827.78a5.22,5.22,0,1,1-5.22-5.22A5.23,5.23,0,0,1,807.92,827.78Z"/><path class="cls-2" d="M921.13,827.78a5.23,5.23,0,1,1-5.22-5.22A5.23,5.23,0,0,1,921.13,827.78Z"/><path class="cls-6" d="M831,827.78a5.23,5.23,0,1,1-5.23-5.22A5.23,5.23,0,0,1,831,827.78Z"/><path class="cls-6" d="M854,827.78a5.23,5.23,0,1,1-5.23-5.22A5.23,5.23,0,0,1,854,827.78Z"/><path class="cls-6" d="M900.8,827.78a5.23,5.23,0,1,1-5.23-5.22A5.23,5.23,0,0,1,900.8,827.78Z"/><path class="cls-6" d="M1006.14,827.78a5.23,5.23,0,1,1-5.23-5.22A5.23,5.23,0,0,1,1006.14,827.78Z"/><path class="cls-3" d="M877.08,827.78a5.23,5.23,0,1,1-5.22-5.22A5.23,5.23,0,0,1,877.08,827.78Z"/><path class="cls-3" d="M943.08,827.78a5.23,5.23,0,1,1-5.22-5.22A5.23,5.23,0,0,1,943.08,827.78Z"/><rect class="cls-2" x="589.79" y="772.88" width="91.06" height="14.01"/><rect class="cls-2" x="589.79" y="796.99" width="91.06" height="14.01"/><rect class="cls-2" x="589.79" y="821.92" width="91.06" height="14.01"/><polygon class="cls-2" points="1129.51 722.21 1031.74 722.4 1031.74 607.65 1129.51 607.47 1129.51 722.21"/><polygon class="cls-2" points="1129.51 862.91 1031.74 863.1 1031.74 748.36 1129.51 748.17 1129.51 862.91"/><rect class="cls-2" x="593.14" y="539.74" width="91.06" height="14.01"/><polygon class="cls-2" points="1129.51 582.69 1031.74 582.88 1031.74 467.26 1129.51 467.07 1129.51 582.69"/><rect class="cls-4" x="572.6" y="467.08" width="462.49" height="114.74"/><rect class="cls-2" x="593.14" y="490.71" width="91.06" height="14.01"/><rect class="cls-2" x="593.14" y="514.82" width="91.06" height="14.01"/><path class="cls-2" d="M720.21,499.17A5.23,5.23,0,1,1,715,494,5.23,5.23,0,0,1,720.21,499.17Z"/><path class="cls-2" d="M743.26,499.17A5.23,5.23,0,1,1,738,494,5.23,5.23,0,0,1,743.26,499.17Z"/><path class="cls-2" d="M766.31,499.17a5.22,5.22,0,1,1-5.22-5.22A5.23,5.23,0,0,1,766.31,499.17Z"/><path class="cls-2" d="M789.37,499.17a5.23,5.23,0,1,1-5.23-5.22A5.23,5.23,0,0,1,789.37,499.17Z"/><path class="cls-2" d="M968,499.17a5.23,5.23,0,1,1-5.23-5.22A5.23,5.23,0,0,1,968,499.17Z"/><path class="cls-2" d="M991.51,499.17a5.23,5.23,0,1,1-5.23-5.22A5.23,5.23,0,0,1,991.51,499.17Z"/><path class="cls-2" d="M812.42,499.17a5.23,5.23,0,1,1-5.23-5.22A5.23,5.23,0,0,1,812.42,499.17Z"/><path class="cls-2" d="M925.63,499.17A5.23,5.23,0,1,1,920.4,494,5.23,5.23,0,0,1,925.63,499.17Z"/><path class="cls-6" d="M835.47,499.17a5.23,5.23,0,1,1-5.22-5.22A5.23,5.23,0,0,1,835.47,499.17Z"/><path class="cls-6" d="M858.52,499.17A5.23,5.23,0,1,1,853.3,494,5.23,5.23,0,0,1,858.52,499.17Z"/><path class="cls-6" d="M905.29,499.17a5.23,5.23,0,1,1-5.22-5.22A5.23,5.23,0,0,1,905.29,499.17Z"/><path class="cls-6" d="M1010.63,499.17a5.23,5.23,0,1,1-5.22-5.22A5.23,5.23,0,0,1,1010.63,499.17Z"/><path class="cls-3" d="M881.57,499.17a5.22,5.22,0,1,1-5.22-5.22A5.23,5.23,0,0,1,881.57,499.17Z"/><path class="cls-3" d="M947.58,499.17a5.23,5.23,0,1,1-5.23-5.22A5.23,5.23,0,0,1,947.58,499.17Z"/><path class="cls-2" d="M1000.18,524.35a5.23,5.23,0,1,1,5.23,5.23A5.23,5.23,0,0,1,1000.18,524.35Z"/><circle class="cls-2" cx="982.36" cy="524.35" r="5.22"/><path class="cls-2" d="M954.08,524.35a5.23,5.23,0,1,1,5.22,5.23A5.22,5.22,0,0,1,954.08,524.35Z"/><path class="cls-2" d="M931,524.35a5.23,5.23,0,1,1,5.22,5.23A5.22,5.22,0,0,1,931,524.35Z"/><path class="cls-2" d="M752.4,524.35a5.22,5.22,0,1,1,5.22,5.23A5.22,5.22,0,0,1,752.4,524.35Z"/><path class="cls-2" d="M728.89,524.35a5.23,5.23,0,1,1,5.22,5.23A5.22,5.22,0,0,1,728.89,524.35Z"/><path class="cls-2" d="M908,524.35a5.22,5.22,0,1,1,5.22,5.23A5.22,5.22,0,0,1,908,524.35Z"/><circle class="cls-2" cx="799.99" cy="524.35" r="5.22"/><path class="cls-6" d="M884.92,524.35a5.23,5.23,0,1,1,5.23,5.23A5.23,5.23,0,0,1,884.92,524.35Z"/><circle class="cls-6" cx="867.1" cy="524.35" r="5.22"/><path class="cls-6" d="M815.1,524.35a5.23,5.23,0,1,1,5.23,5.23A5.23,5.23,0,0,1,815.1,524.35Z"/><circle class="cls-6" cx="714.99" cy="524.35" r="5.22"/><path class="cls-3" d="M838.82,524.35a5.23,5.23,0,1,1,5.22,5.23A5.22,5.22,0,0,1,838.82,524.35Z"/><path class="cls-3" d="M772.82,524.35a5.23,5.23,0,1,1,5.22,5.23A5.22,5.22,0,0,1,772.82,524.35Z"/><path class="cls-2" d="M720.21,546.75a5.23,5.23,0,1,1-5.22-5.23A5.22,5.22,0,0,1,720.21,546.75Z"/><path class="cls-2" d="M743.26,546.75a5.23,5.23,0,1,1-5.22-5.23A5.22,5.22,0,0,1,743.26,546.75Z"/><path class="cls-2" d="M766.31,546.75a5.22,5.22,0,1,1-5.22-5.23A5.22,5.22,0,0,1,766.31,546.75Z"/><path class="cls-2" d="M789.37,546.75a5.23,5.23,0,1,1-5.23-5.23A5.23,5.23,0,0,1,789.37,546.75Z"/><path class="cls-2" d="M968,546.75a5.23,5.23,0,1,1-5.23-5.23A5.23,5.23,0,0,1,968,546.75Z"/><path class="cls-2" d="M991.51,546.75a5.23,5.23,0,1,1-5.23-5.23A5.23,5.23,0,0,1,991.51,546.75Z"/><path class="cls-2" d="M812.42,546.75a5.23,5.23,0,1,1-5.23-5.23A5.23,5.23,0,0,1,812.42,546.75Z"/><path class="cls-2" d="M925.63,546.75a5.23,5.23,0,1,1-5.23-5.23A5.23,5.23,0,0,1,925.63,546.75Z"/><path class="cls-6" d="M835.47,546.75a5.23,5.23,0,1,1-5.22-5.23A5.22,5.22,0,0,1,835.47,546.75Z"/><path class="cls-6" d="M858.52,546.75a5.23,5.23,0,1,1-5.22-5.23A5.22,5.22,0,0,1,858.52,546.75Z"/><path class="cls-6" d="M905.29,546.75a5.23,5.23,0,1,1-5.22-5.23A5.22,5.22,0,0,1,905.29,546.75Z"/><path class="cls-6" d="M1010.63,546.75a5.23,5.23,0,1,1-5.22-5.23A5.22,5.22,0,0,1,1010.63,546.75Z"/><path class="cls-3" d="M881.57,546.75a5.22,5.22,0,1,1-5.22-5.23A5.22,5.22,0,0,1,881.57,546.75Z"/><path class="cls-3" d="M947.58,546.75a5.23,5.23,0,1,1-5.23-5.23A5.23,5.23,0,0,1,947.58,546.75Z"/><path class="cls-7" d="M1439.12,665.53a4.85,4.85,0,1,1-4.85-4.84A4.85,4.85,0,0,1,1439.12,665.53Z"/><path class="cls-7" d="M1453.56,665.53a4.85,4.85,0,1,1-4.84-4.84A4.85,4.85,0,0,1,1453.56,665.53Z"/><path class="cls-4" d="M2074.59,388.2H1446.65a19.61,19.61,0,0,0-19.6,19.6V851.33a19.61,19.61,0,0,0,19.6,19.6h241s15.33,47.41-32.19,71.93h225.35s-53.66-18.39-39.86-71.93h233.64a19.61,19.61,0,0,0,19.6-19.6V407.81A19.61,19.61,0,0,0,2074.59,388.2Z"/><path class="cls-8" d="M1769,824.29c8.54,12.2-4.83,25.57-17,17a4.36,4.36,0,0,1-1-1.05c-8.52-12.21,4.83-25.56,17-17A4.23,4.23,0,0,1,1769,824.29Z"/><path class="cls-9" d="M1465.55,396.33h590.15A27.68,27.68,0,0,1,2083.38,424V789.79a0,0,0,0,1,0,0H1437.86a0,0,0,0,1,0,0V424A27.68,27.68,0,0,1,1465.55,396.33Z"/><path class="cls-10" d="M1464,396.33h597.92a21.46,21.46,0,0,1,21.46,21.46V429a0,0,0,0,1,0,0H1437.86a0,0,0,0,1,0,0v-6.56A26.13,26.13,0,0,1,1464,396.33Z"/><path class="cls-7" d="M1489.33,413.36a4.54,4.54,0,1,1-4.54-4.53A4.54,4.54,0,0,1,1489.33,413.36Z"/><path class="cls-8" d="M1962.32,871c0,.21-89.35.38-199.55.38s-199.58-.17-199.58-.38,89.34-.37,199.58-.37S1962.32,870.79,1962.32,871Z"/><polygon class="cls-6" points="1645.83 651.89 1465.82 652.41 1466.17 776.01 1615.4 775.58 1635.64 775.52 1646.19 775.49 1645.83 651.89"/><path class="cls-2" d="M1479.67,762.75c-.22,0-.45-21-.53-46.82s0-46.83.26-46.83.45,21,.53,46.83S1479.89,762.75,1479.67,762.75Z"/><path class="cls-10" d="M1635.85,749.4c0,.22-35.11.5-78.4.62s-78.42.05-78.42-.16,35.1-.5,78.41-.62S1635.85,749.19,1635.85,749.4Z"/><path class="cls-10" d="M1635.81,735.66c0,.22-35.1.5-78.4.62s-78.42.05-78.42-.16,35.1-.5,78.42-.62S1635.81,735.45,1635.81,735.66Z"/><path class="cls-10" d="M1635.77,721.92c0,.22-35.1.5-78.4.62s-78.42.05-78.42-.16,35.1-.5,78.42-.62S1635.77,721.71,1635.77,721.92Z"/><path class="cls-10" d="M1635.73,708.19c0,.21-35.1.49-78.4.61s-78.42.05-78.42-.16,35.1-.5,78.42-.62S1635.73,708,1635.73,708.19Z"/><path class="cls-10" d="M1635.69,694.45c0,.21-35.1.49-78.4.61s-78.41.05-78.42-.16,35.1-.5,78.42-.62S1635.69,694.23,1635.69,694.45Z"/><path class="cls-10" d="M1635.65,680.71c0,.21-35.1.49-78.4.61s-78.41,0-78.42-.16,35.1-.5,78.42-.62S1635.65,680.49,1635.65,680.71Z"/><path class="cls-10" d="M1635.61,667c0,.21-35.1.49-78.4.62s-78.41,0-78.41-.17,35.09-.5,78.41-.62S1635.61,666.75,1635.61,667Z"/><rect class="cls-3" x="1489.65" y="741.3" width="11.24" height="21.41" transform="translate(-2.16 4.31) rotate(-0.16)"/><rect class="cls-3" x="1571.32" y="741.06" width="11.24" height="21.41" transform="translate(-2.15 4.52) rotate(-0.16)"/><rect class="cls-3" x="1511.68" y="725.48" width="11.24" height="37.16" transform="translate(-2.15 4.4) rotate(-0.17)"/><rect class="cls-3" x="1552.87" y="715.7" width="11.24" height="46.83" transform="translate(-2.12 4.49) rotate(-0.16)"/><rect class="cls-3" x="1532.49" y="687.31" width="11.24" height="75.28" transform="translate(-2.09 4.46) rotate(-0.17)"/><rect class="cls-3" x="1593.05" y="701.06" width="11.24" height="61.35" transform="translate(-2.1 4.61) rotate(-0.16)"/><path class="cls-2" d="M1617.79,762.35c0,.22-30.86.49-68.92.6s-68.92,0-68.92-.2,30.85-.48,68.92-.59S1617.78,762.14,1617.79,762.35Z"/><polygon class="cls-6" points="1464.18 458.32 1464.18 639.83 1755.56 639.83 1781.12 639.83 1856.81 639.83 1856.81 458.32 1464.18 458.32"/><path class="cls-2" d="M1491.8,583.69v5.74h-.59v-5.21h-1.35v-.53Z"/><path class="cls-2" d="M1493.18,586.56c0-1.82,1-2.91,2.28-2.91s2.29,1.09,2.29,2.91-1,2.91-2.29,2.91S1493.18,588.39,1493.18,586.56Zm4,0c0-1.53-.69-2.37-1.69-2.37s-1.69.84-1.69,2.37.69,2.37,1.69,2.37S1497.15,588.09,1497.15,586.56Z"/><path class="cls-2" d="M1494.13,553.27v.53h-4v-.42l2.38-2.34c.65-.63.77-1,.77-1.41,0-.67-.47-1.07-1.34-1.07a2,2,0,0,0-1.57.63l-.41-.36a2.57,2.57,0,0,1,2-.81c1.17,0,1.9.58,1.9,1.54a2.37,2.37,0,0,1-.94,1.8l-1.94,1.91Z"/><path class="cls-2" d="M1494.84,550.93c0-1.83,1-2.91,2.28-2.91s2.29,1.08,2.29,2.91-1,2.91-2.29,2.91S1494.84,552.76,1494.84,550.93Zm4,0c0-1.53-.69-2.37-1.69-2.37s-1.68.84-1.68,2.37.69,2.37,1.68,2.37S1498.81,552.46,1498.81,550.93Z"/><path class="cls-2" d="M1494,516.52c0,1-.69,1.69-2.07,1.69a3,3,0,0,1-2.07-.73l.29-.47a2.53,2.53,0,0,0,1.78.66c.94,0,1.47-.44,1.47-1.15s-.49-1.14-1.55-1.14h-.41V515l1.59-2h-2.93v-.53h3.68v.42l-1.62,2C1493.39,515,1494,515.6,1494,516.52Z"/><path class="cls-2" d="M1494.84,515.3c0-1.83,1-2.92,2.28-2.92s2.29,1.09,2.29,2.92-1,2.91-2.29,2.91S1494.84,517.12,1494.84,515.3Zm4,0c0-1.53-.69-2.38-1.69-2.38s-1.68.85-1.68,2.38.69,2.37,1.68,2.37S1498.81,516.83,1498.81,515.3Z"/><path class="cls-2" d="M1517.1,605.36c0-1.82,1-2.91,2.28-2.91s2.3,1.09,2.3,2.91-1,2.92-2.3,2.92S1517.1,607.19,1517.1,605.36Zm4,0c0-1.53-.69-2.37-1.69-2.37s-1.68.84-1.68,2.37.69,2.38,1.68,2.38S1521.07,606.89,1521.07,605.36Z"/><path class="cls-2" d="M1559.52,602.5v5.73h-.6V603h-1.35v-.52Z"/><path class="cls-2" d="M1604.22,607.7v.53h-4v-.42l2.39-2.33c.64-.64.77-1,.77-1.42,0-.66-.47-1.07-1.35-1.07a1.93,1.93,0,0,0-1.56.64l-.42-.36a2.56,2.56,0,0,1,2-.82c1.16,0,1.9.59,1.9,1.54a2.37,2.37,0,0,1-.94,1.8l-2,1.91Z"/><path class="cls-2" d="M1646.48,606.58c0,1-.69,1.7-2.07,1.7a3,3,0,0,1-2.07-.74l.29-.47a2.49,2.49,0,0,0,1.78.67c.95,0,1.47-.45,1.47-1.16s-.49-1.14-1.55-1.14h-.41V605l1.59-2h-2.93v-.52h3.68v.41l-1.62,2C1645.87,605,1646.48,605.66,1646.48,606.58Z"/><path class="cls-2" d="M1690,606.72h-1.15v1.51h-.59v-1.51H1685v-.42l3-3.8h.65l-2.93,3.7h2.49v-1.33h.57v1.33H1690Z"/><path class="cls-2" d="M1731.35,606.54c0,1-.68,1.74-2.08,1.74a3,3,0,0,1-2.06-.74l.29-.47a2.46,2.46,0,0,0,1.76.67c1,0,1.49-.48,1.49-1.17s-.46-1.2-1.91-1.2h-1.23l.3-2.87h3.14V603h-2.62l-.2,1.83h.74C1730.69,604.85,1731.35,605.53,1731.35,606.54Z"/><path class="cls-2" d="M1774.15,606.52a1.79,1.79,0,0,1-2,1.76c-1.52,0-2.35-1.06-2.35-2.87s1.07-3,2.62-3a2.63,2.63,0,0,1,1.36.31l-.24.47a2,2,0,0,0-1.11-.27c-1.24,0-2,.8-2,2.35,0,.13,0,.3,0,.47a1.84,1.84,0,0,1,1.76-1A1.74,1.74,0,0,1,1774.15,606.52Zm-.58,0c0-.75-.56-1.23-1.44-1.23a1.33,1.33,0,0,0-1.48,1.25c0,.63.53,1.23,1.52,1.23A1.26,1.26,0,0,0,1773.57,606.53Z"/><path class="cls-2" d="M1816.27,602.5v.41l-2.4,5.32h-.64l2.36-5.21h-2.95v1.07h-.58V602.5Z"/><path class="cls-2" d="M1816.58,586.84c0,.31-66.33.55-148.14.55s-148.14-.24-148.14-.55,66.31-.56,148.14-.56S1816.58,586.53,1816.58,586.84Z"/><path class="cls-2" d="M1816.58,551c0,.31-66.33.56-148.14.56s-148.14-.25-148.14-.56,66.31-.55,148.14-.55S1816.58,550.71,1816.58,551Z"/><path class="cls-2" d="M1816.58,515.21c0,.3-66.33.55-148.14.55s-148.14-.25-148.14-.55,66.31-.56,148.14-.56S1816.58,514.9,1816.58,515.21Z"/><path class="cls-3" d="M1520.3,586.31a1.91,1.91,0,1,1-1.91-1.9A1.91,1.91,0,0,1,1520.3,586.31Z"/><path class="cls-3" d="M1562.89,586.31a1.9,1.9,0,1,1-1.9-1.9A1.91,1.91,0,0,1,1562.89,586.31Z"/><path class="cls-3" d="M1605.49,586.31a1.9,1.9,0,1,1-1.9-1.9A1.91,1.91,0,0,1,1605.49,586.31Z"/><path class="cls-3" d="M1648.09,586.31a1.91,1.91,0,1,1-1.9-1.9A1.91,1.91,0,0,1,1648.09,586.31Z"/><path class="cls-3" d="M1690.69,586.31a1.91,1.91,0,1,1-1.91-1.9A1.91,1.91,0,0,1,1690.69,586.31Z"/><path class="cls-3" d="M1775.88,586.31a1.9,1.9,0,1,1-1.9-1.9A1.91,1.91,0,0,1,1775.88,586.31Z"/><path class="cls-3" d="M1733.28,586.31a1.9,1.9,0,1,1-1.9-1.9A1.91,1.91,0,0,1,1733.28,586.31Z"/><path class="cls-3" d="M1818.48,586.31a1.91,1.91,0,1,1-1.9-1.9A1.91,1.91,0,0,1,1818.48,586.31Z"/><path class="cls-7" d="M1539.71,586.84a1.25,1.25,0,1,1-1.25-1.25A1.25,1.25,0,0,1,1539.71,586.84Z"/><path class="cls-7" d="M1582.47,586.84a1.25,1.25,0,1,1-1.25-1.25A1.25,1.25,0,0,1,1582.47,586.84Z"/><path class="cls-7" d="M1625.22,586.84a1.25,1.25,0,1,1-1.24-1.25A1.24,1.24,0,0,1,1625.22,586.84Z"/><path class="cls-7" d="M1668,586.84a1.25,1.25,0,1,1-1.25-1.25A1.25,1.25,0,0,1,1668,586.84Z"/><path class="cls-7" d="M1710.74,586.84a1.25,1.25,0,1,1-1.25-1.25A1.25,1.25,0,0,1,1710.74,586.84Z"/><path class="cls-7" d="M1753.5,586.84a1.25,1.25,0,1,1-1.25-1.25A1.25,1.25,0,0,1,1753.5,586.84Z"/><path class="cls-7" d="M1796.26,586.84a1.25,1.25,0,1,1-1.25-1.25A1.25,1.25,0,0,1,1796.26,586.84Z"/><path class="cls-3" d="M1565.66,571a4.67,4.67,0,1,1-4.67-4.66A4.67,4.67,0,0,1,1565.66,571Z"/><path class="cls-3" d="M1602.82,549.07a4.67,4.67,0,1,1-4.66-4.66A4.67,4.67,0,0,1,1602.82,549.07Z"/><path class="cls-3" d="M1649,551a4.67,4.67,0,1,1-4.67-4.66A4.67,4.67,0,0,1,1649,551Z"/><path class="cls-3" d="M1694,511.16a4.67,4.67,0,1,1-4.66-4.67A4.66,4.66,0,0,1,1694,511.16Z"/><path class="cls-3" d="M1736.05,536.51a4.67,4.67,0,1,1-4.67-4.67A4.67,4.67,0,0,1,1736.05,536.51Z"/><path class="cls-3" d="M1778.65,543.26a4.67,4.67,0,1,1-4.67-4.67A4.67,4.67,0,0,1,1778.65,543.26Z"/><path class="cls-3" d="M1818.48,571a6.08,6.08,0,0,1-1.1,0,23.83,23.83,0,0,1-3.18-.42,24.14,24.14,0,0,1-11.08-5.27,22.86,22.86,0,0,1-5.44-7.08,52.71,52.71,0,0,0-5.7-8.82c-2.41-2.84-5.51-5.73-9.63-6.72a12.23,12.23,0,0,0-6.37.23,17.1,17.1,0,0,0-5.91,3.34c-3.63,3-6.3,7.35-9.83,11.26a19.46,19.46,0,0,1-6.39,5,12.87,12.87,0,0,1-8.41.69,10.51,10.51,0,0,1-6.4-5.88,40.26,40.26,0,0,1-2.77-8.5,49.15,49.15,0,0,0-2.53-8.63,6.85,6.85,0,0,0-2.73-3.27,8.88,8.88,0,0,0-4.31-.84c-3.07.16-6.16,1.05-9.36,1.66a27.78,27.78,0,0,1-4.94.56,11,11,0,0,1-5-1,10.17,10.17,0,0,1-4-3.34,24.15,24.15,0,0,1-2.44-4.53c-1.35-3.15-2.25-6.46-3.48-9.63a23,23,0,0,0-2.25-4.52,8.23,8.23,0,0,0-3.7-3.07c-.39-.12-.77-.26-1.16-.35l-1.23-.12a4.48,4.48,0,0,0-2.28.47,9.43,9.43,0,0,0-3.41,3.56,43.82,43.82,0,0,0-4,9.79c-1,3.44-1.88,7-2.7,10.5-1.36,5.88-2.58,11.74-4.09,17.47a88.07,88.07,0,0,1-2.62,8.46,22,22,0,0,1-4.42,7.69,6.12,6.12,0,0,1-4.21,1.86,8.47,8.47,0,0,1-4.3-1.3,20.55,20.55,0,0,1-6.06-6.12c-3.22-4.67-5.3-9.87-7.3-14.84s-4.35-9.79-8.16-13.12a15.29,15.29,0,0,0-13.7-3.35,23.41,23.41,0,0,0-6.51,2.87,43.7,43.7,0,0,0-5.69,4.12,75.76,75.76,0,0,0-9.5,9.55l0,0h0a101.47,101.47,0,0,1-14.07,11.69,68.68,68.68,0,0,1-14.41,7.81c-4.81,1.78-9.64,2.83-14.1,2.35a49.48,49.48,0,0,1-11.75-2.84,112.07,112.07,0,0,1-15.27-7c-1.68-.93-3-1.67-3.8-2.19s-1.26-.81-1.26-.81.46.22,1.33.7l3.86,2.07a118.48,118.48,0,0,0,15.3,6.73,49.75,49.75,0,0,0,11.64,2.71c4.33.44,9.08-.62,13.8-2.41a68.1,68.1,0,0,0,14.21-7.8,102.08,102.08,0,0,0,13.89-11.64l0,0a76.38,76.38,0,0,1,9.59-9.72,46,46,0,0,1,5.79-4.22,24.37,24.37,0,0,1,6.78-3,16.24,16.24,0,0,1,14.6,3.53c4,3.53,6.39,8.54,8.46,13.49s4.07,10.08,7.22,14.62a19.41,19.41,0,0,0,5.72,5.8,7.4,7.4,0,0,0,3.76,1.15,5,5,0,0,0,3.43-1.56,21.06,21.06,0,0,0,4.16-7.29,85.12,85.12,0,0,0,2.58-8.35c1.5-5.7,2.71-11.55,4.08-17.44.82-3.56,1.68-7.09,2.71-10.57a44.45,44.45,0,0,1,4.08-10,10.49,10.49,0,0,1,3.86-4,5.56,5.56,0,0,1,2.82-.58l1.39.13c.45.11.9.27,1.35.41a9.32,9.32,0,0,1,4.2,3.48,24.13,24.13,0,0,1,2.37,4.74c1.24,3.25,2.14,6.55,3.45,9.61s3,6.08,5.88,7.33,6.22.89,9.32.35,6.27-1.49,9.53-1.65a9.8,9.8,0,0,1,4.83,1,7.72,7.72,0,0,1,3.14,3.73,50.2,50.2,0,0,1,2.59,8.83,39.76,39.76,0,0,0,2.66,8.31,9.61,9.61,0,0,0,5.81,5.42,12.09,12.09,0,0,0,7.79-.62,18.79,18.79,0,0,0,6.12-4.74c3.47-3.82,6.18-8.15,10-11.28a17.89,17.89,0,0,1,6.2-3.46,12.92,12.92,0,0,1,6.75-.2c4.37,1.08,7.52,4.11,10,7a52.34,52.34,0,0,1,5.69,9,22.6,22.6,0,0,0,5.26,7,24.38,24.38,0,0,0,10.84,5.37,27.79,27.79,0,0,0,3.14.53C1818.11,571,1818.48,571,1818.48,571Z"/><path class="cls-2" d="M1566.11,490.66c0,.31-16.54.56-36.93.56s-36.94-.25-36.94-.56,16.53-.55,36.94-.55S1566.11,490.36,1566.11,490.66Z"/><polygon class="cls-6" points="1872.47 459.49 1872.47 636.95 1893.95 636.95 1923.51 636.95 2061.31 636.95 2061.31 459.49 1872.47 459.49"/><path class="cls-2" d="M1966.05,479.6a58.27,58.27,0,1,0,58.27,58.26A58.26,58.26,0,0,0,1966.05,479.6Zm.88,93.17A35.79,35.79,0,1,1,2002.72,537,35.79,35.79,0,0,1,1966.93,572.77Z"/><path class="cls-3" d="M1967,479.62c0,6.2,0,14.56,0,21.57a35.81,35.81,0,0,1,34.1,46.65l21.12,5.72A58.23,58.23,0,0,0,1967,479.62Z"/><path class="cls-4" d="M1931.14,537a35.78,35.78,0,0,1,21.22-32.68l-9-20.13a58.28,58.28,0,0,0-35.6,53.69c0,.82,0,1.64.06,2.45h23.45C1931.2,539.21,1931.14,538.1,1931.14,537Z"/><path class="cls-3" d="M1966.93,572.77a35.61,35.61,0,0,1-7.57-.81c-.9,5.2-2.6,15.26-3.94,23.18a58.19,58.19,0,0,0,66.74-41.58L2001,547.84A35.78,35.78,0,0,1,1966.93,572.77Z"/><path d="M1966.93,572.77a35.61,35.61,0,0,1-7.57-.81c-.9,5.2-2.6,15.26-3.94,23.18a58.19,58.19,0,0,0,66.74-41.58L2001,547.84A35.78,35.78,0,0,1,1966.93,572.77Z"/><path class="cls-2" d="M1959.2,539.88H1957v2.78h-3v-2.78h-7.14v-2.06l6.25-8.4h3.21l-5.79,8h3.56v-2.47H1957v2.47h2.16Z"/><path class="cls-2" d="M1960.11,536c0-4.37,2.42-6.85,5.67-6.85s5.67,2.48,5.67,6.85-2.4,6.85-5.67,6.85S1960.11,540.41,1960.11,536Zm8.26,0c0-3-1.06-4.26-2.59-4.26s-2.57,1.25-2.57,4.26,1.06,4.26,2.57,4.26S1968.37,539.05,1968.37,536Z"/><path class="cls-2" d="M1972.72,532.92c0-2.23,1.36-3.65,3.29-3.65s3.27,1.4,3.27,3.65-1.34,3.65-3.27,3.65S1972.72,535.15,1972.72,532.92Zm4.67,0c0-1.42-.55-2.1-1.38-2.1s-1.38.7-1.38,2.1.57,2.1,1.38,2.1S1977.39,534.34,1977.39,532.92Zm6.51-3.5h2.25l-9,13.24h-2.25Zm-2.18,9.74c0-2.23,1.37-3.65,3.28-3.65s3.29,1.42,3.29,3.65-1.36,3.65-3.29,3.65S1981.72,541.39,1981.72,539.16Zm4.66,0c0-1.4-.55-2.1-1.38-2.1s-1.39.68-1.39,2.1.57,2.1,1.39,2.1S1986.38,540.56,1986.38,539.16Z"/><path class="cls-2" d="M2014.27,610.83c0,.3-21.59.55-48.21.55s-48.22-.25-48.22-.55,21.58-.55,48.22-.55S2014.27,610.52,2014.27,610.83Z"/><path class="cls-2" d="M1992.79,619.68c0,.31-12,.55-26.74.55s-26.74-.24-26.74-.55,12-.55,26.74-.55S1992.79,619.38,1992.79,619.68Z"/><rect class="cls-11" x="1660.49" y="648.75" width="379.01" height="124.52"/><path class="cls-10" d="M2007.53,678.21c0,.22-64.41.4-143.84.4s-143.86-.18-143.86-.4,64.4-.4,143.86-.4S2007.53,678,2007.53,678.21Z"/><path class="cls-10" d="M2007.53,692.94c0,.22-64.41.4-143.84.4s-143.86-.18-143.86-.4,64.4-.4,143.86-.4S2007.53,692.72,2007.53,692.94Z"/><path class="cls-10" d="M2007.53,707.67c0,.23-64.41.41-143.84.41s-143.86-.18-143.86-.41,64.4-.4,143.86-.4S2007.53,707.45,2007.53,707.67Z"/><path class="cls-10" d="M2007.53,722.41c0,.22-64.41.4-143.84.4s-143.86-.18-143.86-.4,64.4-.4,143.86-.4S2007.53,722.19,2007.53,722.41Z"/><path class="cls-10" d="M2007.53,737.14c0,.22-64.41.4-143.84.4s-143.86-.18-143.86-.4,64.4-.4,143.86-.4S2007.53,736.92,2007.53,737.14Z"/><path class="cls-4" d="M1982.48,720s-.2.23-.62.65a7.79,7.79,0,0,1-2.42,1.33,12.9,12.9,0,0,1-10.5-1.67,17.37,17.37,0,0,1-5-5.4,83.36,83.36,0,0,1-3.76-7.51,23.31,23.31,0,0,0-5.63-7.84,12.89,12.89,0,0,0-4.89-2.59,14.92,14.92,0,0,0-6-.29,24.24,24.24,0,0,0-11.48,5.28c-3.43,2.68-6.44,6-10.13,9a24.78,24.78,0,0,1-13.9,5.92,14.29,14.29,0,0,1-8-1.84,17.34,17.34,0,0,1-5.54-5.54c-2.86-4.28-4.31-9.26-8-13.16a13.17,13.17,0,0,0-7-4.18,10.79,10.79,0,0,0-8.18,1.7,16.55,16.55,0,0,0-5.38,6.21,35.63,35.63,0,0,0-2.54,7.76,43.51,43.51,0,0,1-2.52,8.05,18.75,18.75,0,0,1-2.33,3.76,18.54,18.54,0,0,1-3.4,3.14,22.87,22.87,0,0,1-8.77,3.8,23.92,23.92,0,0,1-9.68.12,23.22,23.22,0,0,1-8.55-3.66c-2.53-1.63-4.82-3.44-7.22-5.06a22.47,22.47,0,0,0-7.77-3.67,12.75,12.75,0,0,0-8.32.94,18.69,18.69,0,0,0-6.21,5,46.79,46.79,0,0,0-4.2,6.38,50.2,50.2,0,0,1-4.15,6.32,18.68,18.68,0,0,1-6,4.91,13.72,13.72,0,0,1-7.79,1.58,11.81,11.81,0,0,1-6.77-3.27,16.14,16.14,0,0,1-3.73-5.63,37.37,37.37,0,0,1-1.7-6c-.83-4-1.64-7.79-4-10.85a14,14,0,0,0-9.25-6,11.72,11.72,0,0,0-5.33.57,14.51,14.51,0,0,0-4.27,2.44c-4.86,4-7.2,8.91-10.8,11.73-3.41,2.92-7.09,4.28-9.65,4.2a9.19,9.19,0,0,1-2.82-.43c-.59-.22-.89-.35-.89-.35a11.26,11.26,0,0,0,3.7.62c2.5,0,6.08-1.34,9.41-4.27,3.51-2.8,5.77-7.66,10.69-11.83a15.16,15.16,0,0,1,4.42-2.55,12.28,12.28,0,0,1,5.63-.64,14.67,14.67,0,0,1,9.71,6.16,18.08,18.08,0,0,1,2.69,5.24c.61,1.88,1,3.83,1.46,5.81a37.16,37.16,0,0,0,1.7,5.93,15.52,15.52,0,0,0,3.6,5.39,10.93,10.93,0,0,0,6.3,3,12.77,12.77,0,0,0,7.27-1.51,17.78,17.78,0,0,0,5.7-4.72,47.17,47.17,0,0,0,4.08-6.24,47.51,47.51,0,0,1,4.25-6.49,19.73,19.73,0,0,1,6.49-5.24,13.9,13.9,0,0,1,9-1,23.56,23.56,0,0,1,8.11,3.81c2.44,1.64,4.73,3.45,7.2,5a22.32,22.32,0,0,0,8.21,3.51,22.94,22.94,0,0,0,9.26-.12,22,22,0,0,0,8.4-3.64,17.73,17.73,0,0,0,3.24-3,18.19,18.19,0,0,0,2.22-3.6,42.77,42.77,0,0,0,2.48-7.92,35.52,35.52,0,0,1,2.61-7.92,17.25,17.25,0,0,1,5.66-6.5,11.8,11.8,0,0,1,8.93-1.84,14.1,14.1,0,0,1,7.46,4.46c3.85,4.08,5.3,9.12,8.08,13.28a16.67,16.67,0,0,0,5.27,5.3,13.22,13.22,0,0,0,7.44,1.73,23.92,23.92,0,0,0,13.42-5.7c3.64-2.93,6.67-6.24,10.17-8.95a25,25,0,0,1,11.85-5.38,15.68,15.68,0,0,1,6.31.34,13.57,13.57,0,0,1,5.11,2.73,23.86,23.86,0,0,1,5.7,8c1.28,2.73,2.34,5.29,3.67,7.51a17.13,17.13,0,0,0,4.78,5.33,12.71,12.71,0,0,0,10.21,1.77A7.87,7.87,0,0,0,1982.48,720Z"/><path class="cls-3" d="M2000.68,716.54s-.33,0-1,.06c-.33,0-.73-.08-1.22-.14a12.94,12.94,0,0,1-1.6-.5c-2.4-.89-5.38-3.06-8.57-6.26-.8-.8-1.62-1.67-2.45-2.59a30.5,30.5,0,0,0-2.66-2.85,15.15,15.15,0,0,0-8.47-3.34,12.58,12.58,0,0,0-9.77,3.26c-2.77,2.36-4.85,5.51-7.57,8.49a21.29,21.29,0,0,1-4.86,4.09,16.56,16.56,0,0,1-6.63,2.15c-4.86.49-9.87-.67-14.6-2.37s-9.34-4.09-14.47-5.6a30.42,30.42,0,0,0-8-1.39,19.7,19.7,0,0,0-8.06,1.52c-5.15,2.14-9.16,6-14,9.21a30.41,30.41,0,0,1-8.1,3.85,35,35,0,0,1-9.29,1.39,38.21,38.21,0,0,1-18.43-4.43A42.21,42.21,0,0,1,1837,709c-3.75-4.87-5.81-10.4-8.51-15.44a31.26,31.26,0,0,0-5-7,21.29,21.29,0,0,0-7.29-4.88,14.83,14.83,0,0,0-8.79-.81,15,15,0,0,0-7.3,4.16,20.79,20.79,0,0,0-4.37,6.57,47.16,47.16,0,0,0-2.26,7.26c-.6,2.44-1.14,4.88-1.91,7.24a29.5,29.5,0,0,1-3.13,6.74,32.47,32.47,0,0,1-10.56,10.33,33.68,33.68,0,0,1-13.77,4.83,33.12,33.12,0,0,1-13.63-1.36c-8.34-2.6-14.22-8.22-16.42-14-1.13-2.87-1.71-5.63-2.53-8.09a17.63,17.63,0,0,0-3.27-6.31,12.37,12.37,0,0,0-9.5-4.22,8.18,8.18,0,0,0-3.61,1.13,6.59,6.59,0,0,1,3.59-1.3,12.61,12.61,0,0,1,9.8,4.2,17.74,17.74,0,0,1,3.42,6.4c.85,2.47,1.45,5.23,2.59,8,2.2,5.61,8,11.07,16.16,13.58a32.32,32.32,0,0,0,13.3,1.29,33.15,33.15,0,0,0,13.43-4.76,31.92,31.92,0,0,0,10.29-10.13c2.66-4.1,3.78-8.9,4.92-13.79a46.57,46.57,0,0,1,2.27-7.37,21.53,21.53,0,0,1,4.52-6.81,15.34,15.34,0,0,1,17.13-3.57,22.2,22.2,0,0,1,7.61,5.08,31.71,31.71,0,0,1,5.09,7.2c2.75,5.12,4.77,10.57,8.45,15.34a41.43,41.43,0,0,0,13.69,11.83,37.31,37.31,0,0,0,17.94,4.32,33.66,33.66,0,0,0,9-1.34,29.39,29.39,0,0,0,7.87-3.73c4.76-3.1,8.8-7,14.16-9.25a20.59,20.59,0,0,1,8.45-1.59,31.26,31.26,0,0,1,8.23,1.45c5.22,1.56,9.82,4,14.5,5.65s9.56,2.83,14.22,2.37a15.48,15.48,0,0,0,6.34-2,21,21,0,0,0,4.72-3.94c2.7-2.93,4.81-6.09,7.68-8.51a13.2,13.2,0,0,1,10.23-3.34,15.65,15.65,0,0,1,8.73,3.52,31.77,31.77,0,0,1,2.67,2.9q1.23,1.4,2.4,2.61c3.14,3.21,6,5.39,8.37,6.31A8.31,8.31,0,0,0,2000.68,716.54Z"/><path class="cls-7" d="M1700.08,678.94c0,.22-1.71.4-3.81.4s-3.8-.18-3.8-.4,1.7-.4,3.8-.4S1700.08,678.72,1700.08,678.94Z"/><path class="cls-7" d="M1700.08,692.94c0,.22-1.71.4-3.81.4s-3.8-.18-3.8-.4,1.7-.4,3.8-.4S1700.08,692.72,1700.08,692.94Z"/><path class="cls-7" d="M1700.08,706.94c0,.22-1.71.4-3.81.4s-3.8-.18-3.8-.4,1.7-.4,3.8-.4S1700.08,706.72,1700.08,706.94Z"/><path class="cls-7" d="M1700.08,720.94c0,.23-1.71.41-3.81.41s-3.8-.18-3.8-.41,1.7-.4,3.8-.4S1700.08,720.72,1700.08,720.94Z"/><path class="cls-7" d="M1700.08,735c0,.22-1.71.4-3.81.4s-3.8-.18-3.8-.4,1.7-.41,3.8-.41S1700.08,734.72,1700.08,735Z"/><path class="cls-7" d="M1735.05,752.94c0,.22-3.41.4-7.61.4s-7.61-.18-7.61-.4,3.41-.4,7.61-.4S1735.05,752.72,1735.05,752.94Z"/><path class="cls-7" d="M1802.13,752.94c0,.22-3.41.4-7.61.4s-7.61-.18-7.61-.4,3.41-.4,7.61-.4S1802.13,752.72,1802.13,752.94Z"/><path class="cls-7" d="M1869.21,752.94c0,.22-3.4.4-7.61.4s-7.6-.18-7.6-.4,3.4-.4,7.6-.4S1869.21,752.72,1869.21,752.94Z"/><path class="cls-7" d="M1936.3,752.94c0,.22-3.41.4-7.61.4s-7.61-.18-7.61-.4,3.4-.4,7.61-.4S1936.3,752.72,1936.3,752.94Z"/><path class="cls-7" d="M2003.38,752.94c0,.22-3.41.4-7.61.4s-7.61-.18-7.61-.4,3.41-.4,7.61-.4S2003.38,752.72,2003.38,752.94Z"/><text class="cls-12" transform="translate(99.7 67.83)">CENTRALISATION DU REPORTING POUR ANALYSE</text><text class="cls-13" transform="translate(324.27 187.9)">Reporting centralisé</text><text class="cls-13" transform="translate(387.33 272.68)">Automatisation</text><text class="cls-13" transform="translate(1157.11 187.9)">Business Intelligence</text><text class="cls-13" transform="translate(1234.04 273.15)">Compliance</text></g></g></svg>