<svg xmlns="http://www.w3.org/2000/svg" viewBox="0 0 31.73 24.54"><defs><style>.cls-1{fill:#8f8f96;}.cls-2{fill:#ff624d;}.cls-3{fill:#2f4f57;}</style></defs><g id="Layer_2" data-name="Layer 2"><g id="Layer_1-2" data-name="Layer 1"><g id="Layer_2-2" data-name="Layer 2"><g id="Layer_1-2-2" data-name="Layer 1-2"><path class="cls-1" d="M2.12,0A2.63,2.63,0,0,0,.71.79a2.56,2.56,0,0,0-.59,1h0A1.89,1.89,0,0,0,0,2.52v7.4a2,2,0,0,0,.12.69h0A2.51,2.51,0,0,0,.81,11.7a2.75,2.75,0,0,0,1,.62h0a2.48,2.48,0,0,0,.67.12H13.35a2.48,2.48,0,0,0,.67-.12h0a2.71,2.71,0,0,0,1-.62,2.44,2.44,0,0,0,.7-1.09h0a2.07,2.07,0,0,0,.14-.69V2.52a2.13,2.13,0,0,0-.14-.7h0A2.5,2.5,0,0,0,15,.73a2.82,2.82,0,0,0-1-.61h0A1.89,1.89,0,0,0,13.35,0H2.12Z"/><path class="cls-2" d="M21.54,3.57a2.59,2.59,0,0,0-1.41.79,2.45,2.45,0,0,0-.59,1h0a2.1,2.1,0,0,0-.12.7V18.64a2.1,2.1,0,0,0,.12.7h0a2.45,2.45,0,0,0,.59,1,2.57,2.57,0,0,0,1.09.69h0a2.24,2.24,0,0,0,.68.1h7.31a2.6,2.6,0,0,0,.68-.1h0A2.57,2.57,0,0,0,31,20.33a2.34,2.34,0,0,0,.59-1h0a1.88,1.88,0,0,0,.16-.7V6.05a1.7,1.7,0,0,0-.12-.7h0a2.45,2.45,0,0,0-.59-1,3,3,0,0,0-1.09-.71h0a2,2,0,0,0-.68-.12H25.68C22.51,3.53,21.7,3.53,21.54,3.57Z"/><path class="cls-3" d="M4,15.87a2.53,2.53,0,0,0-1.41.79,2.3,2.3,0,0,0-.6,1H2a1.84,1.84,0,0,0-.11.7v3.76a1.84,1.84,0,0,0,.11.7H2a2.63,2.63,0,0,0,.7,1.09,2.82,2.82,0,0,0,1,.61h0a2.51,2.51,0,0,0,.67,0H15.11a2.58,2.58,0,0,0,.68,0h.08a2.91,2.91,0,0,0,1-.61,2.51,2.51,0,0,0,.69-1.09h0a2.06,2.06,0,0,0,.12-.7V18.4a2,2,0,0,0-.12-.69h0a2.58,2.58,0,0,0-1.7-1.7h0a1.8,1.8,0,0,0-.76-.14H4Z"/></g></g></g></g></svg>