<svg xmlns="http://www.w3.org/2000/svg" viewBox="0 0 422.03 187.65"><defs><style>.cls-1{fill:#0369a1;}.cls-2{fill:#a4a4a7;}.cls-3{fill:#375a64;}.cls-4{fill:#ff735d;}</style></defs><g id="Layer_2" data-name="Layer 2"><g id="Layer_1-2" data-name="Layer 1"><path class="cls-1" d="M90.9,181.15a48,48,0,0,1-17.47-17.6A48.09,48.09,0,0,1,90.9,97.7a47.79,47.79,0,0,1,44.29-1.9,47.84,47.84,0,0,1,16.21,12.49l-12.74,11a31.38,31.38,0,0,0-10.48-8.2,30.52,30.52,0,0,0-28.76,1.2,32.05,32.05,0,0,0-11.29,11.35,31.4,31.4,0,0,0,0,31.48,32.42,32.42,0,0,0,11.29,11.48,29.33,29.33,0,0,0,15.52,4.29,32,32,0,0,0,14.44-3.28,28.28,28.28,0,0,0,10.79-9.21l13.37,10.22a45.52,45.52,0,0,1-16.65,14,48.34,48.34,0,0,1-21.95,5.05A46.47,46.47,0,0,1,90.9,181.15Z"/><path class="cls-1" d="M165,183.8a8.36,8.36,0,0,1-2.58-6.12V101.73a8.81,8.81,0,0,1,8.7-8.7h63.46v16.78h-59.8l4.42-4.42V174l-4.42-4.42h59.8v16.78H171.08A8.37,8.37,0,0,1,165,183.8Zm11.17-52.54h54.63v16.9H176.13Z"/><path class="cls-1" d="M253.53,95.61A8.39,8.39,0,0,1,259.65,93h38a30.83,30.83,0,0,1,15.89,4.29A32,32,0,0,1,329.3,125a29.24,29.24,0,0,1-4.23,15.52,29.8,29.8,0,0,1-11.48,10.85,33.19,33.19,0,0,1-16,3.91H265.08V139.58h32.55a14.62,14.62,0,0,0,7.5-2,15.15,15.15,0,0,0,5.37-5.3,14.07,14.07,0,0,0,2-7.38,14.74,14.74,0,0,0-2-7.51,15.69,15.69,0,0,0-5.43-5.55,14,14,0,0,0-7.44-2.08H263.31l4.42-4.42v81H251V101.73A8.39,8.39,0,0,1,253.53,95.61Zm32.62,55.71,13.24-8.2,30.54,43.27H310.5Z"/><path class="cls-1" d="M371.88,93.15a8.34,8.34,0,0,1,4.73-1.38,7.6,7.6,0,0,1,4.48,1.38,8.65,8.65,0,0,1,3,3.79l38,89.45H403.35L374,117.5h4.92l-29.53,68.89H330.56l38.22-89.45A8.39,8.39,0,0,1,371.88,93.15Z"/><rect class="cls-2" x="56" width="39.51" height="39.51" rx="13.22"/><rect class="cls-3" x="40.38" y="48.09" width="43.24" height="44.68" rx="14.33"/><rect class="cls-4" x="91" y="36.32" width="47.98" height="49.32" rx="14.33"/><rect class="cls-1" x="105.94" y="4.26" width="27.08" height="27.08" rx="9.29"/><rect class="cls-1" x="145.7" y="34.55" width="29.99" height="29.99" rx="9.29"/><rect class="cls-1" x="21.64" y="16.15" width="27.08" height="27.08" rx="9.29"/><rect class="cls-1" y="48.09" width="32.9" height="32.9" rx="9.29"/><rect class="cls-1" x="143.79" y="17.19" width="14.48" height="14.48" rx="3.71"/><rect class="cls-1" x="144.05" y="71.85" width="10.38" height="10.38" rx="2.58"/><rect class="cls-1" x="18.64" y="88.17" width="16.54" height="16.54" rx="3.71"/><rect class="cls-1" x="40.89" y="101.35" width="22.17" height="22.17" rx="5.78"/></g></g></svg>